<?xml version="1.0" encoding="UTF-8" standalone="no"?>
<!-- Created with Inkscape (http://www.inkscape.org/) -->

<svg
   version="1.1"
   id="svg2"
   width="351.67834"
   height="282.76913"
   viewBox="0 0 351.67834 282.76913"
   xmlns="http://www.w3.org/2000/svg"
   xmlns:svg="http://www.w3.org/2000/svg">
  <defs
     id="defs6">
    <clipPath
       clipPathUnits="userSpaceOnUse"
       id="clipPath20">
      <path
         d="m 34.91875,67.560204 h 221.64 V 204.87685 h -221.64 z"
         id="path18" />
    </clipPath>
    <clipPath
       clipPathUnits="userSpaceOnUse"
       id="clipPath30">
      <path
         d="m 34.91875,67.560204 h 221.64 V 204.87685 h -221.64 z"
         id="path28" />
    </clipPath>
    <clipPath
       clipPathUnits="userSpaceOnUse"
       id="clipPath40">
      <path
         d="m 34.91875,67.560204 h 221.64 V 204.87685 h -221.64 z"
         id="path38" />
    </clipPath>
    <clipPath
       clipPathUnits="userSpaceOnUse"
       id="clipPath50">
      <path
         d="m 34.91875,67.560204 h 221.64 V 204.87685 h -221.64 z"
         id="path48" />
    </clipPath>
    <clipPath
       clipPathUnits="userSpaceOnUse"
       id="clipPath60">
      <path
         d="m 34.91875,67.560204 h 221.64 V 204.87685 h -221.64 z"
         id="path58" />
    </clipPath>
    <clipPath
       clipPathUnits="userSpaceOnUse"
       id="clipPath70">
      <path
         d="m 34.91875,67.560204 h 221.64 V 204.87685 h -221.64 z"
         id="path68" />
    </clipPath>
    <clipPath
       clipPathUnits="userSpaceOnUse"
       id="clipPath80">
      <path
         d="m 34.91875,67.560204 h 221.64 V 204.87685 h -221.64 z"
         id="path78" />
    </clipPath>
    <clipPath
       clipPathUnits="userSpaceOnUse"
       id="clipPath192">
      <path
         d="m 34.91875,67.560204 h 221.64 V 204.87685 h -221.64 z"
         id="path190" />
    </clipPath>
    <clipPath
       clipPathUnits="userSpaceOnUse"
       id="clipPath202">
      <path
         d="m 34.91875,67.560204 h 221.64 V 204.87685 h -221.64 z"
         id="path200" />
    </clipPath>
    <clipPath
       clipPathUnits="userSpaceOnUse"
       id="clipPath212">
      <path
         d="m 34.91875,67.560204 h 221.64 V 204.87685 h -221.64 z"
         id="path210" />
    </clipPath>
    <clipPath
       clipPathUnits="userSpaceOnUse"
       id="clipPath222">
      <path
         d="m 34.91875,67.560204 h 221.64 V 204.87685 h -221.64 z"
         id="path220" />
    </clipPath>
    <clipPath
       clipPathUnits="userSpaceOnUse"
       id="clipPath232">
      <path
         d="m 34.91875,67.560204 h 221.64 V 204.87685 h -221.64 z"
         id="path230" />
    </clipPath>
    <clipPath
       clipPathUnits="userSpaceOnUse"
       id="clipPath242">
      <path
         d="m 34.91875,67.560204 h 221.64 V 204.87685 h -221.64 z"
         id="path240" />
    </clipPath>
    <clipPath
       clipPathUnits="userSpaceOnUse"
       id="clipPath252">
      <path
         d="m 34.91875,67.560204 h 221.64 V 204.87685 h -221.64 z"
         id="path250" />
    </clipPath>
  </defs>
  <g
     id="g8"
     transform="matrix(1.3333333,0,0,-1.3333333,0,282.76913)">
    <path
       d="M 0,0 H 263.75875 V 212.07685 H 0 Z"
       style="fill:#ffffff;fill-opacity:1;fill-rule:nonzero;stroke:none"
       id="path10" />
    <path
       d="m 34.91875,67.560204 h 221.64 V 204.87685 h -221.64 z"
       style="fill:#ffffff;fill-opacity:1;fill-rule:nonzero;stroke:none"
       id="path12" />
    <g
       id="g14">
      <g
         id="g16"
         clip-path="url(#clipPath20)">
        <path
           d="m 44.993295,78.480522 v -3.566195 l 20.149091,23.159249 20.149091,46.023784 20.149093,24.97868 20.14909,0.44885 20.14909,12.83394 20.14909,11.90261 20.14909,-5.93301 20.14909,5.64811 20.14909,2.98275 20.14909,-1.87951 v 2.00625 0 l -20.14909,1.54915 -20.14909,-2.32597 -20.14909,-1.61982 -20.14909,3.52849 -20.14909,-3.46625 -20.14909,-2.86071 -20.14909,0.0577 -20.149093,-17.74123 -20.149091,-47.71065 z"
           style="fill:#1f77b4;fill-opacity:0.5;fill-rule:nonzero;stroke:none"
           id="path22" />
      </g>
    </g>
    <g
       id="g24">
      <g
         id="g26"
         clip-path="url(#clipPath30)">
        <path
           d="M 44.993295,109.09893 V 88.403264 l 20.149091,56.790046 20.149091,5.8603 20.149093,25.59513 20.14909,13.55821 20.14909,-8.75895 20.14909,2.97793 20.14909,-1.30316 20.14909,-0.0259 20.14909,4.40171 20.14909,1.37389 v 3.25822 0 l -20.14909,-0.84427 -20.14909,-2.07736 -20.14909,-1.04455 -20.14909,0.3632 -20.14909,-0.53863 -20.14909,4.86297 -20.14909,-8.74103 -20.149093,-7.16537 -20.149091,-2.69369 -20.149091,-65.15298 z"
           style="fill:#ff7f0e;fill-opacity:0.5;fill-rule:nonzero;stroke:none"
           id="path32" />
      </g>
    </g>
    <g
       id="g34">
      <g
         id="g36"
         clip-path="url(#clipPath40)">
        <path
           d="m 44.993295,74.220509 v -0.392367 l 20.149091,6.268347 20.149091,17.424285 20.149093,24.563426 20.14909,15.82231 20.14909,10.43332 20.14909,8.9273 20.14909,21.48809 20.14909,2.88253 20.14909,-3.04054 20.14909,9.28095 v 3.28282 0 l -20.14909,-3.78801 -20.14909,-0.4324 -20.14909,-1.38191 -20.14909,-6.29041 -20.14909,-8.7106 L 125.58966,160.25016 105.44057,146.76947 85.291477,116.86328 65.142386,95.725466 Z"
           style="fill:#2ca02c;fill-opacity:0.2;fill-rule:nonzero;stroke:none"
           id="path42" />
      </g>
    </g>
    <g
       id="g44">
      <g
         id="g46"
         clip-path="url(#clipPath50)">
        <path
           d="m 44.993295,102.9057 v -6.718067 l 20.149091,48.057367 20.149091,5.40774 20.149093,4.14941 20.14909,4.06925 20.14909,4.25797 20.14909,1.746 20.14909,-1.85626 20.14909,5.60752 20.14909,-1.02491 20.14909,0.58025 v 8.28646 0 l -20.14909,-0.0842 -20.14909,1.1544 -20.14909,-4.71458 -20.14909,0.15203 -20.14909,-1.86988 -20.14909,-5.36673 -20.14909,-1.82131 -20.149093,-8.46256 -20.149091,-6.0314 -20.149091,-45.51847 z"
           style="fill:#d62728;fill-opacity:0.2;fill-rule:nonzero;stroke:none"
           id="path52" />
      </g>
    </g>
    <g
       id="g54">
      <g
         id="g56"
         clip-path="url(#clipPath60)">
        <path
           d="m 44.993295,73.824577 v -0.02211 l 20.149091,-5.98e-4 h 20.149091 20.149093 l 20.14909,9.75e-4 20.14909,-9.75e-4 h 20.14909 20.14909 20.14909 20.14909 20.14909 v 0 0 h -20.14909 -20.14909 -20.14909 -20.14909 -20.14909 l -20.14909,0.03703 -20.14909,-0.03703 H 85.291477 65.142386 l -20.149091,0.02271 z"
           style="fill:#9467bd;fill-opacity:0.2;fill-rule:nonzero;stroke:none"
           id="path62" />
      </g>
    </g>
    <g
       id="g64">
      <g
         id="g66"
         clip-path="url(#clipPath70)">
        <path
           d="m 44.993295,74.451547 v -0.343615 l 20.149091,17.054951 20.149091,13.480717 20.149093,6.11494 20.14909,15.20593 20.14909,6.92349 20.14909,1.74223 20.14909,4.86269 20.14909,-0.55063 20.14909,2.83349 20.14909,2.00573 v 17.21823 0 l -20.14909,-1.32689 -20.14909,-3.03949 -20.14909,0.0566 -20.14909,-6.22942 -20.14909,1.00865 -20.14909,-4.82963 -20.14909,-9.60395 -20.149093,-6.19892 -20.149091,-22.4077 -20.149091,-33.977423 z"
           style="fill:#8c564b;fill-opacity:0.2;fill-rule:nonzero;stroke:none"
           id="path72" />
      </g>
    </g>
    <g
       id="g74">
      <g
         id="g76"
         clip-path="url(#clipPath80)">
        <path
           d="m 44.993295,76.016942 v -2.125217 l 20.149091,-0.06789 20.149091,-0.0076 20.149093,0.07474 20.14909,0.04212 20.14909,0.680903 20.14909,12.22968 20.14909,11.502492 20.14909,7.04156 20.14909,0.91084 20.14909,8.57396 v 22.6907 0 l -20.14909,-11.23765 -20.14909,1.05107 -20.14909,-7.59455 -20.14909,-18.23839 -20.14909,-24.911456 -20.14909,-1.905855 -20.14909,1.484 -20.149093,-1.861573 -20.149091,-0.433284 -20.149091,2.10136 z"
           style="fill:#e377c2;fill-opacity:0.2;fill-rule:nonzero;stroke:none"
           id="path82" />
      </g>
    </g>
    <g
       id="g84">
      <path
         d="m 44.993295,67.560204 v -3.5"
         style="fill:#000000;fill-opacity:1;fill-rule:nonzero;stroke:#000000;stroke-width:0.8;stroke-linecap:butt;stroke-linejoin:round;stroke-miterlimit:10;stroke-dasharray:none;stroke-opacity:1"
         id="path86" />
      <g
         id="g88"
         transform="translate(43.001108,55.997704)">
        <text
           xml:space="preserve"
           transform="scale(1,-1)"
           style="font-variant:normal;font-weight:normal;font-size:6.22222px;font-family:'DejaVu Serif';-inkscape-font-specification:DejaVuSerif;writing-mode:lr-tb;fill:#000000;fill-opacity:1;fill-rule:nonzero;stroke:none"
           id="text92"><tspan
             x="0"
             y="0"
             id="tspan90">0</tspan></text>
      </g>
      <path
         d="m 85.291477,67.560204 v -3.5"
         style="fill:#000000;fill-opacity:1;fill-rule:nonzero;stroke:#000000;stroke-width:0.8;stroke-linecap:butt;stroke-linejoin:round;stroke-miterlimit:10;stroke-dasharray:none;stroke-opacity:1"
         id="path94" />
      <g
         id="g96"
         transform="translate(83.29929,55.997704)">
        <text
           xml:space="preserve"
           transform="scale(1,-1)"
           style="font-variant:normal;font-weight:normal;font-size:6.22222px;font-family:'DejaVu Serif';-inkscape-font-specification:DejaVuSerif;writing-mode:lr-tb;fill:#000000;fill-opacity:1;fill-rule:nonzero;stroke:none"
           id="text100"><tspan
             x="0"
             y="0"
             id="tspan98">2</tspan></text>
      </g>
      <path
         d="m 125.58966,67.560204 v -3.5"
         style="fill:#000000;fill-opacity:1;fill-rule:nonzero;stroke:#000000;stroke-width:0.8;stroke-linecap:butt;stroke-linejoin:round;stroke-miterlimit:10;stroke-dasharray:none;stroke-opacity:1"
         id="path102" />
      <g
         id="g104"
         transform="translate(123.59747,55.997704)">
        <text
           xml:space="preserve"
           transform="scale(1,-1)"
           style="font-variant:normal;font-weight:normal;font-size:6.22222px;font-family:'DejaVu Serif';-inkscape-font-specification:DejaVuSerif;writing-mode:lr-tb;fill:#000000;fill-opacity:1;fill-rule:nonzero;stroke:none"
           id="text108"><tspan
             x="0"
             y="0"
             id="tspan106">4</tspan></text>
      </g>
      <path
         d="m 165.88784,67.560204 v -3.5"
         style="fill:#000000;fill-opacity:1;fill-rule:nonzero;stroke:#000000;stroke-width:0.8;stroke-linecap:butt;stroke-linejoin:round;stroke-miterlimit:10;stroke-dasharray:none;stroke-opacity:1"
         id="path110" />
      <g
         id="g112"
         transform="translate(163.89565,55.997704)">
        <text
           xml:space="preserve"
           transform="scale(1,-1)"
           style="font-variant:normal;font-weight:normal;font-size:6.22222px;font-family:'DejaVu Serif';-inkscape-font-specification:DejaVuSerif;writing-mode:lr-tb;fill:#000000;fill-opacity:1;fill-rule:nonzero;stroke:none"
           id="text116"><tspan
             x="0"
             y="0"
             id="tspan114">6</tspan></text>
      </g>
      <path
         d="m 206.18602,67.560204 v -3.5"
         style="fill:#000000;fill-opacity:1;fill-rule:nonzero;stroke:#000000;stroke-width:0.8;stroke-linecap:butt;stroke-linejoin:round;stroke-miterlimit:10;stroke-dasharray:none;stroke-opacity:1"
         id="path118" />
      <g
         id="g120"
         transform="translate(204.19384,55.997704)">
        <text
           xml:space="preserve"
           transform="scale(1,-1)"
           style="font-variant:normal;font-weight:normal;font-size:6.22222px;font-family:'DejaVu Serif';-inkscape-font-specification:DejaVuSerif;writing-mode:lr-tb;fill:#000000;fill-opacity:1;fill-rule:nonzero;stroke:none"
           id="text124"><tspan
             x="0"
             y="0"
             id="tspan122">8</tspan></text>
      </g>
      <path
         d="m 246.4842,67.560204 v -3.5"
         style="fill:#000000;fill-opacity:1;fill-rule:nonzero;stroke:#000000;stroke-width:0.8;stroke-linecap:butt;stroke-linejoin:round;stroke-miterlimit:10;stroke-dasharray:none;stroke-opacity:1"
         id="path126" />
      <g
         id="g128"
         transform="translate(242.49983,55.997704)">
        <text
           xml:space="preserve"
           transform="scale(1,-1)"
           style="font-variant:normal;font-weight:normal;font-size:6.22222px;font-family:'DejaVu Serif';-inkscape-font-specification:DejaVuSerif;writing-mode:lr-tb;fill:#000000;fill-opacity:1;fill-rule:nonzero;stroke:none"
           id="text132"><tspan
             x="0 3.9573333"
             y="0"
             id="tspan130">10</tspan></text>
      </g>
      <g
         id="g134"
         transform="translate(115.00437,45.435204)">
        <text
           xml:space="preserve"
           transform="scale(1,-1)"
           style="font-variant:normal;font-weight:normal;font-size:7px;font-family:'DejaVu Serif';-inkscape-font-specification:DejaVuSerif;writing-mode:lr-tb;fill:#000000;fill-opacity:1;fill-rule:nonzero;stroke:none"
           id="text138"><tspan
             x="0 5.355 9.8629999 13.209 16.555 18.795 22.715 27.223 29.462999 33.971001 40.606998 42.833 46.424 49.237999 53.382 57.862"
             y="0"
             id="tspan136">Curriculum steps</tspan></text>
      </g>
      <path
         d="m 34.91875,73.80187 h -3.5"
         style="fill:#000000;fill-opacity:1;fill-rule:nonzero;stroke:#000000;stroke-width:0.8;stroke-linecap:butt;stroke-linejoin:round;stroke-miterlimit:10;stroke-dasharray:none;stroke-opacity:1"
         id="path140" />
      <g
         id="g142"
         transform="translate(17.965625,71.52062)">
        <text
           xml:space="preserve"
           transform="scale(1,-1)"
           style="font-variant:normal;font-weight:normal;font-size:6.22222px;font-family:'DejaVu Serif';-inkscape-font-specification:DejaVuSerif;writing-mode:lr-tb;fill:#000000;fill-opacity:1;fill-rule:nonzero;stroke:none"
           id="text146"><tspan
             x="0 3.9573333 5.9359999"
             y="0"
             id="tspan144">0.0</tspan></text>
      </g>
      <path
         d="m 34.91875,100.13667 h -3.5"
         style="fill:#000000;fill-opacity:1;fill-rule:nonzero;stroke:#000000;stroke-width:0.8;stroke-linecap:butt;stroke-linejoin:round;stroke-miterlimit:10;stroke-dasharray:none;stroke-opacity:1"
         id="path148" />
      <g
         id="g150"
         transform="translate(17.965625,97.855424)">
        <text
           xml:space="preserve"
           transform="scale(1,-1)"
           style="font-variant:normal;font-weight:normal;font-size:6.22222px;font-family:'DejaVu Serif';-inkscape-font-specification:DejaVuSerif;writing-mode:lr-tb;fill:#000000;fill-opacity:1;fill-rule:nonzero;stroke:none"
           id="text154"><tspan
             x="0 3.9573333 5.9359999"
             y="0"
             id="tspan152">0.2</tspan></text>
      </g>
      <path
         d="m 34.91875,126.47148 h -3.5"
         style="fill:#000000;fill-opacity:1;fill-rule:nonzero;stroke:#000000;stroke-width:0.8;stroke-linecap:butt;stroke-linejoin:round;stroke-miterlimit:10;stroke-dasharray:none;stroke-opacity:1"
         id="path156" />
      <g
         id="g158"
         transform="translate(17.965625,124.19023)">
        <text
           xml:space="preserve"
           transform="scale(1,-1)"
           style="font-variant:normal;font-weight:normal;font-size:6.22222px;font-family:'DejaVu Serif';-inkscape-font-specification:DejaVuSerif;writing-mode:lr-tb;fill:#000000;fill-opacity:1;fill-rule:nonzero;stroke:none"
           id="text162"><tspan
             x="0 3.9573333 5.9359999"
             y="0"
             id="tspan160">0.4</tspan></text>
      </g>
      <path
         d="m 34.91875,152.80628 h -3.5"
         style="fill:#000000;fill-opacity:1;fill-rule:nonzero;stroke:#000000;stroke-width:0.8;stroke-linecap:butt;stroke-linejoin:round;stroke-miterlimit:10;stroke-dasharray:none;stroke-opacity:1"
         id="path164" />
      <g
         id="g166"
         transform="translate(17.965625,150.52503)">
        <text
           xml:space="preserve"
           transform="scale(1,-1)"
           style="font-variant:normal;font-weight:normal;font-size:6.22222px;font-family:'DejaVu Serif';-inkscape-font-specification:DejaVuSerif;writing-mode:lr-tb;fill:#000000;fill-opacity:1;fill-rule:nonzero;stroke:none"
           id="text170"><tspan
             x="0 3.9573333 5.9359999"
             y="0"
             id="tspan168">0.6</tspan></text>
      </g>
      <path
         d="m 34.91875,179.14109 h -3.5"
         style="fill:#000000;fill-opacity:1;fill-rule:nonzero;stroke:#000000;stroke-width:0.8;stroke-linecap:butt;stroke-linejoin:round;stroke-miterlimit:10;stroke-dasharray:none;stroke-opacity:1"
         id="path172" />
      <g
         id="g174"
         transform="translate(17.965625,176.85984)">
        <text
           xml:space="preserve"
           transform="scale(1,-1)"
           style="font-variant:normal;font-weight:normal;font-size:6.22222px;font-family:'DejaVu Serif';-inkscape-font-specification:DejaVuSerif;writing-mode:lr-tb;fill:#000000;fill-opacity:1;fill-rule:nonzero;stroke:none"
           id="text178"><tspan
             x="0 3.9573333 5.9359999"
             y="0"
             id="tspan176">0.8</tspan></text>
      </g>
      <g
         id="g180"
         transform="rotate(90,-53.099107,65.611607)">
        <text
           xml:space="preserve"
           transform="scale(1,-1)"
           style="font-variant:normal;font-weight:normal;font-size:7px;font-family:'DejaVu Serif';-inkscape-font-specification:DejaVuSerif;writing-mode:lr-tb;fill:#000000;fill-opacity:1;fill-rule:nonzero;stroke:none"
           id="text184"><tspan
             x="0 3.5910001 8.099 12.019 15.939 20.083 23.674 27.264999 31.409"
             y="0"
             id="tspan182">successes</tspan></text>
      </g>
    </g>
    <g
       id="g186">
      <g
         id="g188"
         clip-path="url(#clipPath192)">
        <path
           d="m 44.993295,76.697424 20.149091,35.587736 20.149091,46.86721 20.149093,21.35996 20.14909,0.19558 20.14909,7.84732 20.14909,7.68443 20.14909,-4.73075 20.14909,3.63397 20.14909,2.65436 20.14909,-1.71433"
           style="fill:none;stroke:#1f77b4;stroke-width:1.5;stroke-linecap:square;stroke-linejoin:round;stroke-miterlimit:10;stroke-dasharray:none;stroke-opacity:1"
           id="path194" />
      </g>
    </g>
    <g
       id="g196">
      <g
         id="g198"
         clip-path="url(#clipPath202)">
        <path
           d="m 44.993295,98.751097 20.149091,60.971513 20.149091,4.27699 20.149093,16.38025 20.14909,11.14963 20.14909,-6.81097 20.14909,1.75829 20.14909,-0.83319 20.14909,0.50931 20.14909,3.23953 20.14909,1.10908"
           style="fill:none;stroke:#ff7f0e;stroke-width:1.5;stroke-linecap:square;stroke-linejoin:round;stroke-miterlimit:10;stroke-dasharray:none;stroke-opacity:1"
           id="path204" />
      </g>
    </g>
    <g
       id="g206">
      <g
         id="g208"
         clip-path="url(#clipPath212)">
        <path
           d="m 44.993295,74.024326 20.149091,13.886651 20.149091,19.281053 20.149093,27.2348 20.14909,14.65151 20.14909,10.3704 20.14909,8.81895 20.14909,13.88925 20.14909,2.13222 20.14909,-1.30407 20.14909,6.53448"
           style="fill:none;stroke:#2ca02c;stroke-width:1.5;stroke-linecap:butt;stroke-linejoin:round;stroke-miterlimit:10;stroke-dasharray:5.55, 2.4;stroke-dashoffset:0;stroke-opacity:1"
           id="path214" />
      </g>
    </g>
    <g
       id="g216">
      <g
         id="g218"
         clip-path="url(#clipPath222)">
        <path
           d="m 44.993295,99.546666 20.149091,46.787914 20.149091,5.71958 20.149093,6.30598 20.14909,2.94528 20.14909,4.81235 20.14909,1.80794 20.14909,-1.00415 20.14909,5.16105 20.14909,-1.08965 20.14909,0.33224"
           style="fill:none;stroke:#d62728;stroke-width:1.5;stroke-linecap:butt;stroke-linejoin:round;stroke-miterlimit:10;stroke-dasharray:5.55, 2.4;stroke-dashoffset:0;stroke-opacity:1"
           id="path224" />
      </g>
    </g>
    <g
       id="g226">
      <g
         id="g228"
         clip-path="url(#clipPath232)">
        <path
           d="m 44.993295,73.813522 20.149091,-0.01165 h 20.149091 20.149093 l 20.14909,0.019 20.14909,-0.019 h 20.14909 20.14909 20.14909 20.14909 20.14909"
           style="fill:none;stroke:#9467bd;stroke-width:1.5;stroke-linecap:butt;stroke-linejoin:round;stroke-miterlimit:10;stroke-dasharray:5.55, 2.4;stroke-dashoffset:0;stroke-opacity:1"
           id="path234" />
      </g>
    </g>
    <g
       id="g236">
      <g
         id="g238"
         clip-path="url(#clipPath242)">
        <path
           d="m 44.993295,74.279739 20.149091,25.516189 20.149091,17.944212 20.149093,6.15692 20.14909,12.40494 20.14909,5.87656 20.14909,0.3668 20.14909,5.54605 20.14909,-0.30362 20.14909,2.93648 20.14909,1.66632"
           style="fill:none;stroke:#8c564b;stroke-width:1.5;stroke-linecap:butt;stroke-linejoin:round;stroke-miterlimit:10;stroke-dasharray:5.55, 2.4;stroke-dashoffset:0;stroke-opacity:1"
           id="path244" />
      </g>
    </g>
    <g
       id="g246">
      <g
         id="g248"
         clip-path="url(#clipPath252)">
        <path
           d="m 44.993295,74.954334 20.149091,-1.084628 20.149091,0.212864 20.149093,0.968159 20.14909,-0.720942 20.14909,1.293379 20.14909,18.570566 20.14909,14.870448 20.14909,7.31805 20.14909,-0.0701 20.14909,9.90581"
           style="fill:none;stroke:#e377c2;stroke-width:1.5;stroke-linecap:butt;stroke-linejoin:round;stroke-miterlimit:10;stroke-dasharray:5.55, 2.4;stroke-dashoffset:0;stroke-opacity:1"
           id="path254" />
      </g>
    </g>
    <g
       id="g256">
      <path
         d="M 34.91875,67.560204 V 204.87685"
         style="fill:none;stroke:#000000;stroke-width:0.75;stroke-linecap:square;stroke-linejoin:miter;stroke-miterlimit:10;stroke-dasharray:none;stroke-opacity:1"
         id="path258" />
      <path
         d="m 34.91875,67.560204 h 221.64"
         style="fill:none;stroke:#000000;stroke-width:0.75;stroke-linecap:square;stroke-linejoin:miter;stroke-miterlimit:10;stroke-dasharray:none;stroke-opacity:1"
         id="path260" />
      <path
         d="m 37.71875,34.434375 h 7 7"
         style="fill:none;stroke:#1f77b4;stroke-width:1.5;stroke-linecap:square;stroke-linejoin:round;stroke-miterlimit:10;stroke-dasharray:none;stroke-opacity:1"
         id="path262" />
      <g
         id="g264"
         transform="translate(57.31875,31.984375)">
        <text
           xml:space="preserve"
           transform="scale(1,-1)"
           style="font-variant:normal;font-weight:normal;font-size:7px;font-family:'DejaVu Serif';-inkscape-font-specification:DejaVuSerif;writing-mode:lr-tb;fill:#000000;fill-opacity:1;fill-rule:nonzero;stroke:none"
           id="text268"><tspan
             x="0 5.145 9.3170004 13.237 17.479"
             y="0"
             id="tspan266">Back8</tspan></text>
      </g>
      <path
         d="m 37.71875,24.16875 h 7 7"
         style="fill:none;stroke:#ff7f0e;stroke-width:1.5;stroke-linecap:square;stroke-linejoin:round;stroke-miterlimit:10;stroke-dasharray:none;stroke-opacity:1"
         id="path270" />
      <g
         id="g272"
         transform="translate(57.31875,21.71875)">
        <text
           xml:space="preserve"
           transform="scale(1,-1)"
           style="font-variant:normal;font-weight:normal;font-size:7px;font-family:'DejaVu Serif';-inkscape-font-specification:DejaVuSerif;writing-mode:lr-tb;fill:#000000;fill-opacity:1;fill-rule:nonzero;stroke:none"
           id="text276"><tspan
             x="0 2.7650001 7.2729998 11.193 14.539 18.683001 25.319 29.462999 33.971001 36.785 40.957001 43.196999"
             y="0"
             id="tspan274">Incremental4</tspan></text>
      </g>
      <path
         d="m 37.71875,13.903125 h 7 7"
         style="fill:none;stroke:#2ca02c;stroke-width:1.5;stroke-linecap:butt;stroke-linejoin:round;stroke-miterlimit:10;stroke-dasharray:5.55, 2.4;stroke-dashoffset:0;stroke-opacity:1"
         id="path278" />
      <g
         id="g280"
         transform="translate(57.31875,11.453125)">
        <text
           xml:space="preserve"
           transform="scale(1,-1)"
           style="font-variant:normal;font-weight:normal;font-size:7px;font-family:'DejaVu Serif';-inkscape-font-specification:DejaVuSerif;writing-mode:lr-tb;fill:#000000;fill-opacity:1;fill-rule:nonzero;stroke:none"
           id="text284"><tspan
             x="0 5.7399998 10.22 13.034 15.274 21.91 24.15 27.839001 31.983"
             y="0"
             id="tspan282">Optimized</tspan></text>
      </g>
      <path
         d="m 130.63406,34.434375 h 7 7"
         style="fill:none;stroke:#d62728;stroke-width:1.5;stroke-linecap:butt;stroke-linejoin:round;stroke-miterlimit:10;stroke-dasharray:5.55, 2.4;stroke-dashoffset:0;stroke-opacity:1"
         id="path286" />
      <g
         id="g288"
         transform="translate(150.23406,31.984375)">
        <text
           xml:space="preserve"
           transform="scale(1,-1)"
           style="font-variant:normal;font-weight:normal;font-size:7px;font-family:'DejaVu Serif';-inkscape-font-specification:DejaVuSerif;writing-mode:lr-tb;fill:#000000;fill-opacity:1;fill-rule:nonzero;stroke:none"
           id="text292"><tspan
             x="0 6.125 10.339 12.565 14.805 19.313 22.127001 26.271 29.617001 32.743874"
             y="0"
             id="tspan290">No interv.</tspan></text>
      </g>
      <path
         d="m 130.63406,24.16875 h 7 7"
         style="fill:none;stroke:#9467bd;stroke-width:1.5;stroke-linecap:butt;stroke-linejoin:round;stroke-miterlimit:10;stroke-dasharray:5.55, 2.4;stroke-dashoffset:0;stroke-opacity:1"
         id="path294" />
      <g
         id="g296"
         transform="translate(150.23406,21.71875)">
        <text
           xml:space="preserve"
           transform="scale(1,-1)"
           style="font-variant:normal;font-weight:normal;font-size:7px;font-family:'DejaVu Serif';-inkscape-font-specification:DejaVuSerif;writing-mode:lr-tb;fill:#000000;fill-opacity:1;fill-rule:nonzero;stroke:none"
           id="text300"><tspan
             x="0 6.1040001"
             y="0"
             id="tspan298">HR</tspan></text>
      </g>
      <path
         d="m 210.79937,34.434375 h 7 7"
         style="fill:none;stroke:#8c564b;stroke-width:1.5;stroke-linecap:butt;stroke-linejoin:round;stroke-miterlimit:10;stroke-dasharray:5.55, 2.4;stroke-dashoffset:0;stroke-opacity:1"
         id="path302" />
      <g
         id="g304"
         transform="translate(230.39937,31.984375)">
        <text
           xml:space="preserve"
           transform="scale(1,-1)"
           style="font-variant:normal;font-weight:normal;font-size:7px;font-family:'DejaVu Serif';-inkscape-font-specification:DejaVuSerif;writing-mode:lr-tb;fill:#000000;fill-opacity:1;fill-rule:nonzero;stroke:none"
           id="text308"><tspan
             x="0 4.7950001 10.066"
             y="0"
             id="tspan306">SR1</tspan></text>
      </g>
      <path
         d="m 210.79937,24.16875 h 7 7"
         style="fill:none;stroke:#e377c2;stroke-width:1.5;stroke-linecap:butt;stroke-linejoin:round;stroke-miterlimit:10;stroke-dasharray:5.55, 2.4;stroke-dashoffset:0;stroke-opacity:1"
         id="path310" />
      <g
         id="g312"
         transform="translate(230.39937,21.71875)">
        <text
           xml:space="preserve"
           transform="scale(1,-1)"
           style="font-variant:normal;font-weight:normal;font-size:7px;font-family:'DejaVu Serif';-inkscape-font-specification:DejaVuSerif;writing-mode:lr-tb;fill:#000000;fill-opacity:1;fill-rule:nonzero;stroke:none"
           id="text316"><tspan
             x="0 5.145 9.3170004 13.825 18.305 20.545"
             y="0"
             id="tspan314">Bandit</tspan></text>
      </g>
    </g>
  </g>
</svg>
