<?xml version="1.0" encoding="UTF-8"?>
<svg width="351.68" height="259.26" version="1.1" viewBox="0 0 351.68 259.26" xmlns="http://www.w3.org/2000/svg">
 <defs>
  <clipPath id="b">
   <path d="m34.918 7.199h221.64v155.68h-221.64z"/>
  </clipPath>
  <clipPath id="a">
   <path d="m0 0h264v195h-264z"/>
  </clipPath>
  <clipPath id="e">
   <path d="m34.918 7.199h221.64v155.68h-221.64z"/>
  </clipPath>
  <clipPath id="d">
   <path d="m0 0h264v195h-264z"/>
  </clipPath>
  <clipPath id="c">
   <path d="m0 0h264v195h-264z"/>
  </clipPath>
 </defs>
 <g transform="matrix(1.3333 0 0 1.3333 0 8.4816e-6)">
  <g fill="#fff">
   <path d="m0 0h263.76v194.45h-263.76z"/>
   <path d="m34.918 7.199h221.64v155.68h-221.64z"/>
  </g>
  <g clip-path="url(#b)">
   <g clip-path="url(#a)">
    <path d="m44.992 155.8 33.582-21.379 33.582-60.547 33.582-4.512 33.582-27.058 33.582-12.625 33.582-15.399-33.582 15.399-33.582 12.625-33.582 27.058-33.582 4.512-33.582 60.547z" fill="#2ca02c" fill-opacity=".2"/>
   </g>
  </g>
  <g transform="scale(1,-1)">
   <path d="m44.992-162.88v-3.5" fill="none" stroke="#000" stroke-linejoin="round" stroke-miterlimit="10" stroke-width=".8"/>
  </g>
  <text transform="translate(43.001 174.44)" fill="#000000" font-family="'DejaVu Serif'" font-size="6.2222px" xml:space="preserve"><tspan x="0" y="0">0</tspan></text>
  <g transform="scale(1,-1)">
   <path d="m78.574-162.88v-3.5" fill="none" stroke="#000" stroke-linejoin="round" stroke-miterlimit="10" stroke-width=".8"/>
  </g>
  <text transform="translate(76.583 174.44)" fill="#000000" font-family="'DejaVu Serif'" font-size="6.2222px" xml:space="preserve"><tspan x="0" y="0">1</tspan></text>
  <g transform="scale(1,-1)">
   <path d="m112.16-162.88v-3.5" fill="none" stroke="#000" stroke-linejoin="round" stroke-miterlimit="10" stroke-width=".8"/>
  </g>
  <text transform="translate(110.16 174.44)" fill="#000000" font-family="'DejaVu Serif'" font-size="6.2222px" xml:space="preserve"><tspan x="0" y="0">2</tspan></text>
  <g transform="scale(1,-1)">
   <path d="m145.74-162.88v-3.5" fill="none" stroke="#000" stroke-linejoin="round" stroke-miterlimit="10" stroke-width=".8"/>
  </g>
  <text transform="translate(143.75 174.44)" fill="#000000" font-family="'DejaVu Serif'" font-size="6.2222px" xml:space="preserve"><tspan x="0" y="0">3</tspan></text>
  <g transform="scale(1,-1)">
   <path d="m179.32-162.88v-3.5" fill="none" stroke="#000" stroke-linejoin="round" stroke-miterlimit="10" stroke-width=".8"/>
  </g>
  <text transform="translate(177.33 174.44)" fill="#000000" font-family="'DejaVu Serif'" font-size="6.2222px" xml:space="preserve"><tspan x="0" y="0">4</tspan></text>
  <g transform="scale(1,-1)">
   <path d="m212.9-162.88v-3.5" fill="none" stroke="#000" stroke-linejoin="round" stroke-miterlimit="10" stroke-width=".8"/>
  </g>
  <text transform="translate(210.91 174.44)" fill="#000000" font-family="'DejaVu Serif'" font-size="6.2222px" xml:space="preserve"><tspan x="0" y="0">5</tspan></text>
  <g transform="scale(1,-1)">
   <path d="m246.48-162.88v-3.5" fill="none" stroke="#000" stroke-linejoin="round" stroke-miterlimit="10" stroke-width=".8"/>
  </g>
  <text transform="translate(244.49 174.44)" fill="#000000" font-family="'DejaVu Serif'" font-size="6.2222px" xml:space="preserve"><tspan x="0" y="0">6</tspan></text>
  <text transform="translate(115 185)" fill="#000000" font-family="'DejaVu Serif'" font-size="7px" xml:space="preserve"><tspan x="0 5.355 9.8629999 13.209 16.555 18.788 22.708 27.216 29.448999 33.957001 42.819 46.41 49.216999 53.354 57.834" y="0">Curriculumsteps</tspan></text>
  <g transform="scale(1,-1)">
   <path d="m34.918-157.22h-3.5" fill="none" stroke="#000" stroke-linejoin="round" stroke-miterlimit="10" stroke-width=".8"/>
  </g>
  <text transform="translate(17.966 159.5)" fill="#000000" font-family="'DejaVu Serif'" font-size="6.2222px" xml:space="preserve"><tspan x="0 3.9573319 5.9297757" y="0">0.0</tspan></text>
  <g transform="scale(1,-1)">
   <path d="m34.918-125.57h-3.5" fill="none" stroke="#000" stroke-linejoin="round" stroke-miterlimit="10" stroke-width=".8"/>
  </g>
  <text transform="translate(17.966 127.86)" fill="#000000" font-family="'DejaVu Serif'" font-size="6.2222px" xml:space="preserve"><tspan x="0 3.9573319 5.9297757" y="0">0.2</tspan></text>
  <g transform="scale(1,-1)">
   <path d="m34.918-93.934h-3.5" fill="none" stroke="#000" stroke-linejoin="round" stroke-miterlimit="10" stroke-width=".8"/>
  </g>
  <text transform="translate(17.966 96.215)" fill="#000000" font-family="'DejaVu Serif'" font-size="6.2222px" xml:space="preserve"><tspan x="0 3.9573319 5.9297757" y="0">0.4</tspan></text>
  <g transform="scale(1,-1)">
   <path d="m34.918-62.293h-3.5" fill="none" stroke="#000" stroke-linejoin="round" stroke-miterlimit="10" stroke-width=".8"/>
  </g>
  <text transform="translate(17.966 64.574)" fill="#000000" font-family="'DejaVu Serif'" font-size="6.2222px" xml:space="preserve"><tspan x="0 3.9573319 5.9297757" y="0">0.6</tspan></text>
  <g transform="scale(1,-1)">
   <path d="m34.918-30.652h-3.5" fill="none" stroke="#000" stroke-linejoin="round" stroke-miterlimit="10" stroke-width=".8"/>
  </g>
  <text transform="translate(17.966 32.933)" fill="#000000" font-family="'DejaVu Serif'" font-size="6.2222px" xml:space="preserve"><tspan x="0 3.9573319 5.9297757" y="0">0.8</tspan></text>
  <text transform="rotate(-90 57.529 45.016)" fill="#000000" font-family="'DejaVu Serif'" font-size="7px" xml:space="preserve"><tspan x="0 3.5910001 8.099 12.019 15.939 20.076 23.667 27.257999 31.395" y="0">successes</tspan></text>
  <g clip-path="url(#e)">
   <g clip-path="url(#d)">
    <g transform="scale(1,-1)">
     <path d="m145.74-162.88v155.68" fill="none" stroke="#d3d3d3" stroke-dasharray="5.55, 2.4" stroke-linejoin="round" stroke-miterlimit="10" stroke-width="1.5"/>
    </g>
   </g>
   <g clip-path="url(#c)">
    <g transform="scale(1,-1)">
     <path d="m44.992-155.8 33.582 21.379 33.582 60.547 33.582 4.512 33.582 27.058 33.582 12.625 33.582 15.399" fill="none" stroke="#2ca02c" stroke-dasharray="5.55, 2.4" stroke-linejoin="round" stroke-miterlimit="10" stroke-width="1.5"/>
    </g>
   </g>
  </g>
  <g transform="scale(1,-1)" fill="none" stroke-miterlimit="10">
   <path d="m34.918-162.88v155.68" stroke="#000" stroke-linecap="square" stroke-width=".75"/>
   <path d="m34.918-162.88h221.64" stroke="#000" stroke-linecap="square" stroke-width=".75"/>
   <path d="m195.3-141.84h14" stroke="#2ca02c" stroke-dasharray="5.55, 2.4" stroke-linejoin="round" stroke-width="1.5"/>
  </g>
  <text transform="translate(214.9 144.29)" fill="#000000" font-family="'DejaVu Serif'" font-size="7px" xml:space="preserve"><tspan x="0 5.7329998 10.213 13.02 15.253 21.889 24.122 27.804001 31.941" y="0">Optimized</tspan></text>
  <g transform="scale(1,-1)" fill="none" stroke="#000" stroke-width=".75">
   <path d="m37.891-68.66h101.82"/>
   <path d="m39.953-70.91-2.25 2.25 2.25 2.25" stroke-linecap="round"/>
  </g>
  <g transform="scale(-1,1)">
   <path d="m-137.65 66.41-2.25 2.25 2.25 2.25" fill="none" stroke="#000" stroke-linecap="round" stroke-width=".75"/>
  </g>
  <g transform="scale(1,-1)" fill="none" stroke="#000" stroke-width=".75">
   <path d="m151.7-68.652h104.95"/>
   <path d="m153.76-70.902-2.25 2.25 2.25 2.25" stroke-linecap="round"/>
  </g>
  <g transform="scale(-1,1)">
   <path d="m-254.59 66.402-2.25 2.25 2.25 2.25" fill="none" stroke="#000" stroke-linecap="round" stroke-width=".75"/>
  </g>
  <text transform="translate(77.819 65.987)" fill="#000000" font-family="'DejaVu Sans'" font-size="8px" xml:space="preserve"><tspan x="0 5.0720186 10.624039" y="0">SR1</tspan><tspan x="121.59865 127.60667" y="-0.081954695">HR</tspan></text>
 </g>
</svg>
